# xmcd CD database file generated by Grip 3.3.1
# 
# Track frame offsets:
#       150
#       17925
#       41122
#       47952
#       62259
#       70983
#       79446
#       92947
#       109394
#       123259
#       148372
#       154762
#       167252
#       178461
#       195016
#       210240
#       223348
#       237385
#       250002
#       257367
#       276046
#       293910
# 
# Disc length: 4220 seconds
# 
# Revision: 1
# Processed by: cddbd v1.5.2PL0 Copyright (c) Steve Scherf et al.
# Submitted via: Grip 3.3.1
# 
DISCID=4a107a16
DTITLE=Modest Mussorgsky - Pictures at an Exhibition, Works for solo pia
DTITLE=no
DYEAR=2013
DGENRE=Classical
TTITLE0=Promenade - No.1 Gnomus
TTITLE1=Promenade - No.2 Vecchio castello
TTITLE2=Promenade - No.3 Tuileries
TTITLE3=No.4 Bydlo
TTITLE4=Promenade - No.5 Ballet des poussins dans leurs coques
TTITLE5=No.6 Samuel Goldenberg et Schmuyle
TTITLE6=Promenade No.7 Limoges: Le march'e
TTITLE7=No.8 Catacombae: Sepulchrum Romanum - con mortuis in lingua mortu
TTITLE7=a
TTITLE8=No.9 Le cabane sur des pattes de poule
TTITLE9=No.10 La grande porte de Kiev
TTITLE10=From memories of a Childhood - Nurse and I
TTITLE11=Ein Kinderscherz
TTITLE12=Impromptu passioné
TTITLE13=Scherzo in B flat
TTITLE14=Une larme
TTITLE15=On the Southern Shore of the Crimea
TTITLE16=Méditation
TTITLE17=Au village (Quasi fantasia)
TTITLE18=Sorochintsï Fair - Gopak of joyful fellows (arr. for piano)
TTITLE19=Sorochintsï Fair - The market Scene (arr. for piano)
TTITLE20=Near the Southern Shore of the Crimea
TTITLE21=Intermezzo in modo classico
EXTD=
EXTT0=
EXTT1=
EXTT2=
EXTT3=
EXTT4=
EXTT5=
EXTT6=
EXTT7=
EXTT8=
EXTT9=
EXTT10=
EXTT11=
EXTT12=
EXTT13=
EXTT14=
EXTT15=
EXTT16=
EXTT17=
EXTT18=
EXTT19=
EXTT20=
EXTT21=
PLAYORDER=
